<svg xmlns="http://www.w3.org/2000/svg" viewBox="0 0 492.8 492.8"><rect width="492.8" height="492.8" fill="#ffffff" id="bg" class="bg"/><g><g transform="translate(0.00,&#10;                                0.00) rotate(0, 24.64, 24.64)"><svg xmlns="http://www.w3.org/2000/svg" id="Layer_1" data-name="Layer 1" viewBox="0 0 100 100" width="49.28" height="49.28"><circle cx="50" cy="50" r="50" fill="#F7B801"/></svg></g><g transform="translate(49.28,&#10;                                0.00) rotate(0, 24.64, 24.64)"><svg xmlns="http://www.w3.org/2000/svg" id="Layer_1" data-name="Layer 1" viewBox="0 0 100 100" width="49.28" height="49.28"><path d="M50,100h0A50,50,0,0,1,0,50V0H100V50A50,50,0,0,1,50,100Z" fill="#7678ED"/></svg></g><g transform="translate(0.00,&#10;                                49.28) rotate(0, 24.64, 24.64)"><svg xmlns="http://www.w3.org/2000/svg" id="Layer_1" data-name="Layer 1" viewBox="0 0 100 100" width="49.28" height="49.28"><path d="M100,100A50,50,0,0,0,0,100Z" fill="#F18701"/></svg></g><g transform="translate(49.28,&#10;                                49.28) rotate(0, 24.64, 24.64)"><svg xmlns="http://www.w3.org/2000/svg" id="Layer_1" data-name="Layer 1" viewBox="0 0 100 100" width="49.28" height="49.28"><path d="M50,100a50,50,0,1,1,50-50v50Z" fill="#3D348B"/></svg></g><g transform="translate(98.56,&#10;                                0.00) rotate(0, 24.64, 24.64)"><svg xmlns="http://www.w3.org/2000/svg" id="Layer_1" data-name="Layer 1" viewBox="0 0 100 100" width="49.28" height="49.28"><circle cx="50" cy="50" r="50" fill="#F7B801"/></svg></g><g transform="translate(147.84,&#10;                                0.00) rotate(0, 24.64, 24.64)"><svg xmlns="http://www.w3.org/2000/svg" id="Layer_1" data-name="Layer 1" viewBox="0 0 100 100" width="49.28" height="49.28"><path d="M50,100h0A50,50,0,0,1,0,50V0H100V50A50,50,0,0,1,50,100Z" fill="#7678ED"/></svg></g><g transform="translate(98.56,&#10;                                49.28) rotate(0, 24.64, 24.64)"><svg xmlns="http://www.w3.org/2000/svg" id="Layer_1" data-name="Layer 1" viewBox="0 0 100 100" width="49.28" height="49.28"><path d="M100,100A50,50,0,0,0,0,100Z" fill="#F18701"/></svg></g><g transform="translate(147.84,&#10;                                49.28) rotate(0, 24.64, 24.64)"><svg xmlns="http://www.w3.org/2000/svg" id="Layer_1" data-name="Layer 1" viewBox="0 0 100 100" width="49.28" height="49.28"><path d="M50,100a50,50,0,1,1,50-50v50Z" fill="#3D348B"/></svg></g><g transform="translate(197.12,&#10;                                0.00) rotate(0, 24.64, 24.64)"><svg xmlns="http://www.w3.org/2000/svg" id="Layer_1" data-name="Layer 1" viewBox="0 0 100 100" width="49.28" height="49.28"><circle cx="50" cy="50" r="50" fill="#F7B801"/></svg></g><g transform="translate(246.40,&#10;                                0.00) rotate(0, 24.64, 24.64)"><svg xmlns="http://www.w3.org/2000/svg" id="Layer_1" data-name="Layer 1" viewBox="0 0 100 100" width="49.28" height="49.28"><path d="M50,100h0A50,50,0,0,1,0,50V0H100V50A50,50,0,0,1,50,100Z" fill="#7678ED"/></svg></g><g transform="translate(197.12,&#10;                                49.28) rotate(0, 24.64, 24.64)"><svg xmlns="http://www.w3.org/2000/svg" id="Layer_1" data-name="Layer 1" viewBox="0 0 100 100" width="49.28" height="49.28"><path d="M100,100A50,50,0,0,0,0,100Z" fill="#F18701"/></svg></g><g transform="translate(246.40,&#10;                                49.28) rotate(0, 24.64, 24.64)"><svg xmlns="http://www.w3.org/2000/svg" id="Layer_1" data-name="Layer 1" viewBox="0 0 100 100" width="49.28" height="49.28"><path d="M50,100a50,50,0,1,1,50-50v50Z" fill="#3D348B"/></svg></g><g transform="translate(295.68,&#10;                                0.00) rotate(0, 24.64, 24.64)"><svg xmlns="http://www.w3.org/2000/svg" id="Layer_1" data-name="Layer 1" viewBox="0 0 100 100" width="49.28" height="49.28"><circle cx="50" cy="50" r="50" fill="#F7B801"/></svg></g><g transform="translate(344.96,&#10;                                0.00) rotate(0, 24.64, 24.64)"><svg xmlns="http://www.w3.org/2000/svg" id="Layer_1" data-name="Layer 1" viewBox="0 0 100 100" width="49.28" height="49.28"><path d="M50,100h0A50,50,0,0,1,0,50V0H100V50A50,50,0,0,1,50,100Z" fill="#7678ED"/></svg></g><g transform="translate(295.68,&#10;                                49.28) rotate(0, 24.64, 24.64)"><svg xmlns="http://www.w3.org/2000/svg" id="Layer_1" data-name="Layer 1" viewBox="0 0 100 100" width="49.28" height="49.28"><path d="M100,100A50,50,0,0,0,0,100Z" fill="#F18701"/></svg></g><g transform="translate(344.96,&#10;                                49.28) rotate(0, 24.64, 24.64)"><svg xmlns="http://www.w3.org/2000/svg" id="Layer_1" data-name="Layer 1" viewBox="0 0 100 100" width="49.28" height="49.28"><path d="M50,100a50,50,0,1,1,50-50v50Z" fill="#3D348B"/></svg></g><g transform="translate(394.24,&#10;                                0.00) rotate(0, 24.64, 24.64)"><svg xmlns="http://www.w3.org/2000/svg" id="Layer_1" data-name="Layer 1" viewBox="0 0 100 100" width="49.28" height="49.28"><circle cx="50" cy="50" r="50" fill="#F7B801"/></svg></g><g transform="translate(443.52,&#10;                                0.00) rotate(0, 24.64, 24.64)"><svg xmlns="http://www.w3.org/2000/svg" id="Layer_1" data-name="Layer 1" viewBox="0 0 100 100" width="49.28" height="49.28"><path d="M50,100h0A50,50,0,0,1,0,50V0H100V50A50,50,0,0,1,50,100Z" fill="#7678ED"/></svg></g><g transform="translate(394.24,&#10;                                49.28) rotate(0, 24.64, 24.64)"><svg xmlns="http://www.w3.org/2000/svg" id="Layer_1" data-name="Layer 1" viewBox="0 0 100 100" width="49.28" height="49.28"><path d="M100,100A50,50,0,0,0,0,100Z" fill="#F18701"/></svg></g><g transform="translate(443.52,&#10;                                49.28) rotate(0, 24.64, 24.64)"><svg xmlns="http://www.w3.org/2000/svg" id="Layer_1" data-name="Layer 1" viewBox="0 0 100 100" width="49.28" height="49.28"><path d="M50,100a50,50,0,1,1,50-50v50Z" fill="#3D348B"/></svg></g></g><g><g transform="translate(0.00,&#10;                                98.56) rotate(0, 24.64, 24.64)"><svg xmlns="http://www.w3.org/2000/svg" id="Layer_1" data-name="Layer 1" viewBox="0 0 100 100" width="49.28" height="49.28"><circle cx="50" cy="50" r="50" fill="#F7B801"/></svg></g><g transform="translate(49.28,&#10;                                98.56) rotate(0, 24.64, 24.64)"><svg xmlns="http://www.w3.org/2000/svg" id="Layer_1" data-name="Layer 1" viewBox="0 0 100 100" width="49.28" height="49.28"><path d="M50,100h0A50,50,0,0,1,0,50V0H100V50A50,50,0,0,1,50,100Z" fill="#7678ED"/></svg></g><g transform="translate(0.00,&#10;                                147.84) rotate(0, 24.64, 24.64)"><svg xmlns="http://www.w3.org/2000/svg" id="Layer_1" data-name="Layer 1" viewBox="0 0 100 100" width="49.28" height="49.28"><path d="M100,100A50,50,0,0,0,0,100Z" fill="#F18701"/></svg></g><g transform="translate(49.28,&#10;                                147.84) rotate(0, 24.64, 24.64)"><svg xmlns="http://www.w3.org/2000/svg" id="Layer_1" data-name="Layer 1" viewBox="0 0 100 100" width="49.28" height="49.28"><path d="M50,100a50,50,0,1,1,50-50v50Z" fill="#3D348B"/></svg></g><g transform="translate(98.56,&#10;                                98.56) rotate(0, 24.64, 24.64)"><svg xmlns="http://www.w3.org/2000/svg" id="Layer_1" data-name="Layer 1" viewBox="0 0 100 100" width="49.28" height="49.28"><circle cx="50" cy="50" r="50" fill="#F7B801"/></svg></g><g transform="translate(147.84,&#10;                                98.56) rotate(0, 24.64, 24.64)"><svg xmlns="http://www.w3.org/2000/svg" id="Layer_1" data-name="Layer 1" viewBox="0 0 100 100" width="49.28" height="49.28"><path d="M50,100h0A50,50,0,0,1,0,50V0H100V50A50,50,0,0,1,50,100Z" fill="#7678ED"/></svg></g><g transform="translate(98.56,&#10;                                147.84) rotate(0, 24.64, 24.64)"><svg xmlns="http://www.w3.org/2000/svg" id="Layer_1" data-name="Layer 1" viewBox="0 0 100 100" width="49.28" height="49.28"><path d="M100,100A50,50,0,0,0,0,100Z" fill="#F18701"/></svg></g><g transform="translate(147.84,&#10;                                147.84) rotate(0, 24.64, 24.64)"><svg xmlns="http://www.w3.org/2000/svg" id="Layer_1" data-name="Layer 1" viewBox="0 0 100 100" width="49.28" height="49.28"><path d="M50,100a50,50,0,1,1,50-50v50Z" fill="#3D348B"/></svg></g><g transform="translate(197.12,&#10;                                98.56) rotate(0, 24.64, 24.64)"><svg xmlns="http://www.w3.org/2000/svg" id="Layer_1" data-name="Layer 1" viewBox="0 0 100 100" width="49.28" height="49.28"><circle cx="50" cy="50" r="50" fill="#F7B801"/></svg></g><g transform="translate(246.40,&#10;                                98.56) rotate(0, 24.64, 24.64)"><svg xmlns="http://www.w3.org/2000/svg" id="Layer_1" data-name="Layer 1" viewBox="0 0 100 100" width="49.28" height="49.28"><path d="M50,100h0A50,50,0,0,1,0,50V0H100V50A50,50,0,0,1,50,100Z" fill="#7678ED"/></svg></g><g transform="translate(197.12,&#10;                                147.84) rotate(0, 24.64, 24.64)"><svg xmlns="http://www.w3.org/2000/svg" id="Layer_1" data-name="Layer 1" viewBox="0 0 100 100" width="49.28" height="49.28"><path d="M100,100A50,50,0,0,0,0,100Z" fill="#F18701"/></svg></g><g transform="translate(246.40,&#10;                                147.84) rotate(0, 24.64, 24.64)"><svg xmlns="http://www.w3.org/2000/svg" id="Layer_1" data-name="Layer 1" viewBox="0 0 100 100" width="49.28" height="49.28"><path d="M50,100a50,50,0,1,1,50-50v50Z" fill="#3D348B"/></svg></g><g transform="translate(295.68,&#10;                                98.56) rotate(0, 24.64, 24.64)"><svg xmlns="http://www.w3.org/2000/svg" id="Layer_1" data-name="Layer 1" viewBox="0 0 100 100" width="49.28" height="49.28"><circle cx="50" cy="50" r="50" fill="#F7B801"/></svg></g><g transform="translate(344.96,&#10;                                98.56) rotate(0, 24.64, 24.64)"><svg xmlns="http://www.w3.org/2000/svg" id="Layer_1" data-name="Layer 1" viewBox="0 0 100 100" width="49.28" height="49.28"><path d="M50,100h0A50,50,0,0,1,0,50V0H100V50A50,50,0,0,1,50,100Z" fill="#7678ED"/></svg></g><g transform="translate(295.68,&#10;                                147.84) rotate(0, 24.64, 24.64)"><svg xmlns="http://www.w3.org/2000/svg" id="Layer_1" data-name="Layer 1" viewBox="0 0 100 100" width="49.28" height="49.28"><path d="M100,100A50,50,0,0,0,0,100Z" fill="#F18701"/></svg></g><g transform="translate(344.96,&#10;                                147.84) rotate(0, 24.64, 24.64)"><svg xmlns="http://www.w3.org/2000/svg" id="Layer_1" data-name="Layer 1" viewBox="0 0 100 100" width="49.28" height="49.28"><path d="M50,100a50,50,0,1,1,50-50v50Z" fill="#3D348B"/></svg></g><g transform="translate(394.24,&#10;                                98.56) rotate(0, 24.64, 24.64)"><svg xmlns="http://www.w3.org/2000/svg" id="Layer_1" data-name="Layer 1" viewBox="0 0 100 100" width="49.28" height="49.28"><circle cx="50" cy="50" r="50" fill="#F7B801"/></svg></g><g transform="translate(443.52,&#10;                                98.56) rotate(0, 24.64, 24.64)"><svg xmlns="http://www.w3.org/2000/svg" id="Layer_1" data-name="Layer 1" viewBox="0 0 100 100" width="49.28" height="49.28"><path d="M50,100h0A50,50,0,0,1,0,50V0H100V50A50,50,0,0,1,50,100Z" fill="#7678ED"/></svg></g><g transform="translate(394.24,&#10;                                147.84) rotate(0, 24.64, 24.64)"><svg xmlns="http://www.w3.org/2000/svg" id="Layer_1" data-name="Layer 1" viewBox="0 0 100 100" width="49.28" height="49.28"><path d="M100,100A50,50,0,0,0,0,100Z" fill="#F18701"/></svg></g><g transform="translate(443.52,&#10;                                147.84) rotate(0, 24.64, 24.64)"><svg xmlns="http://www.w3.org/2000/svg" id="Layer_1" data-name="Layer 1" viewBox="0 0 100 100" width="49.28" height="49.28"><path d="M50,100a50,50,0,1,1,50-50v50Z" fill="#3D348B"/></svg></g></g><g><g transform="translate(0.00,&#10;                                197.12) rotate(0, 24.64, 24.64)"><svg xmlns="http://www.w3.org/2000/svg" id="Layer_1" data-name="Layer 1" viewBox="0 0 100 100" width="49.28" height="49.28"><circle cx="50" cy="50" r="50" fill="#F7B801"/></svg></g><g transform="translate(49.28,&#10;                                197.12) rotate(0, 24.64, 24.64)"><svg xmlns="http://www.w3.org/2000/svg" id="Layer_1" data-name="Layer 1" viewBox="0 0 100 100" width="49.28" height="49.28"><path d="M50,100h0A50,50,0,0,1,0,50V0H100V50A50,50,0,0,1,50,100Z" fill="#7678ED"/></svg></g><g transform="translate(0.00,&#10;                                246.40) rotate(0, 24.64, 24.64)"><svg xmlns="http://www.w3.org/2000/svg" id="Layer_1" data-name="Layer 1" viewBox="0 0 100 100" width="49.28" height="49.28"><path d="M100,100A50,50,0,0,0,0,100Z" fill="#F18701"/></svg></g><g transform="translate(49.28,&#10;                                246.40) rotate(0, 24.64, 24.64)"><svg xmlns="http://www.w3.org/2000/svg" id="Layer_1" data-name="Layer 1" viewBox="0 0 100 100" width="49.28" height="49.28"><path d="M50,100a50,50,0,1,1,50-50v50Z" fill="#3D348B"/></svg></g><g transform="translate(98.56,&#10;                                197.12) rotate(0, 24.64, 24.64)"><svg xmlns="http://www.w3.org/2000/svg" id="Layer_1" data-name="Layer 1" viewBox="0 0 100 100" width="49.28" height="49.28"><circle cx="50" cy="50" r="50" fill="#F7B801"/></svg></g><g transform="translate(147.84,&#10;                                197.12) rotate(0, 24.64, 24.64)"><svg xmlns="http://www.w3.org/2000/svg" id="Layer_1" data-name="Layer 1" viewBox="0 0 100 100" width="49.28" height="49.28"><path d="M50,100h0A50,50,0,0,1,0,50V0H100V50A50,50,0,0,1,50,100Z" fill="#7678ED"/></svg></g><g transform="translate(98.56,&#10;                                246.40) rotate(0, 24.64, 24.64)"><svg xmlns="http://www.w3.org/2000/svg" id="Layer_1" data-name="Layer 1" viewBox="0 0 100 100" width="49.28" height="49.28"><path d="M100,100A50,50,0,0,0,0,100Z" fill="#F18701"/></svg></g><g transform="translate(147.84,&#10;                                246.40) rotate(0, 24.64, 24.64)"><svg xmlns="http://www.w3.org/2000/svg" id="Layer_1" data-name="Layer 1" viewBox="0 0 100 100" width="49.28" height="49.28"><path d="M50,100a50,50,0,1,1,50-50v50Z" fill="#3D348B"/></svg></g><g transform="translate(197.12,&#10;                                197.12) rotate(0, 24.64, 24.64)"><svg xmlns="http://www.w3.org/2000/svg" id="Layer_1" data-name="Layer 1" viewBox="0 0 100 100" width="49.28" height="49.28"><circle cx="50" cy="50" r="50" fill="#F7B801"/></svg></g><g transform="translate(246.40,&#10;                                197.12) rotate(0, 24.64, 24.64)"><svg xmlns="http://www.w3.org/2000/svg" id="Layer_1" data-name="Layer 1" viewBox="0 0 100 100" width="49.28" height="49.28"><path d="M50,100h0A50,50,0,0,1,0,50V0H100V50A50,50,0,0,1,50,100Z" fill="#7678ED"/></svg></g><g transform="translate(197.12,&#10;                                246.40) rotate(0, 24.64, 24.64)"><svg xmlns="http://www.w3.org/2000/svg" id="Layer_1" data-name="Layer 1" viewBox="0 0 100 100" width="49.28" height="49.28"><path d="M100,100A50,50,0,0,0,0,100Z" fill="#F18701"/></svg></g><g transform="translate(246.40,&#10;                                246.40) rotate(0, 24.64, 24.64)"><svg xmlns="http://www.w3.org/2000/svg" id="Layer_1" data-name="Layer 1" viewBox="0 0 100 100" width="49.28" height="49.28"><path d="M50,100a50,50,0,1,1,50-50v50Z" fill="#3D348B"/></svg></g><g transform="translate(295.68,&#10;                                197.12) rotate(0, 24.64, 24.64)"><svg xmlns="http://www.w3.org/2000/svg" id="Layer_1" data-name="Layer 1" viewBox="0 0 100 100" width="49.28" height="49.28"><circle cx="50" cy="50" r="50" fill="#F7B801"/></svg></g><g transform="translate(344.96,&#10;                                197.12) rotate(0, 24.64, 24.64)"><svg xmlns="http://www.w3.org/2000/svg" id="Layer_1" data-name="Layer 1" viewBox="0 0 100 100" width="49.28" height="49.28"><path d="M50,100h0A50,50,0,0,1,0,50V0H100V50A50,50,0,0,1,50,100Z" fill="#7678ED"/></svg></g><g transform="translate(295.68,&#10;                                246.40) rotate(0, 24.64, 24.64)"><svg xmlns="http://www.w3.org/2000/svg" id="Layer_1" data-name="Layer 1" viewBox="0 0 100 100" width="49.28" height="49.28"><path d="M100,100A50,50,0,0,0,0,100Z" fill="#F18701"/></svg></g><g transform="translate(344.96,&#10;                                246.40) rotate(0, 24.64, 24.64)"><svg xmlns="http://www.w3.org/2000/svg" id="Layer_1" data-name="Layer 1" viewBox="0 0 100 100" width="49.28" height="49.28"><path d="M50,100a50,50,0,1,1,50-50v50Z" fill="#3D348B"/></svg></g><g transform="translate(394.24,&#10;                                197.12) rotate(0, 24.64, 24.64)"><svg xmlns="http://www.w3.org/2000/svg" id="Layer_1" data-name="Layer 1" viewBox="0 0 100 100" width="49.28" height="49.28"><circle cx="50" cy="50" r="50" fill="#F7B801"/></svg></g><g transform="translate(443.52,&#10;                                197.12) rotate(0, 24.64, 24.64)"><svg xmlns="http://www.w3.org/2000/svg" id="Layer_1" data-name="Layer 1" viewBox="0 0 100 100" width="49.28" height="49.28"><path d="M50,100h0A50,50,0,0,1,0,50V0H100V50A50,50,0,0,1,50,100Z" fill="#7678ED"/></svg></g><g transform="translate(394.24,&#10;                                246.40) rotate(0, 24.64, 24.64)"><svg xmlns="http://www.w3.org/2000/svg" id="Layer_1" data-name="Layer 1" viewBox="0 0 100 100" width="49.28" height="49.28"><path d="M100,100A50,50,0,0,0,0,100Z" fill="#F18701"/></svg></g><g transform="translate(443.52,&#10;                                246.40) rotate(0, 24.64, 24.64)"><svg xmlns="http://www.w3.org/2000/svg" id="Layer_1" data-name="Layer 1" viewBox="0 0 100 100" width="49.28" height="49.28"><path d="M50,100a50,50,0,1,1,50-50v50Z" fill="#3D348B"/></svg></g></g><g><g transform="translate(0.00,&#10;                                295.68) rotate(0, 24.64, 24.64)"><svg xmlns="http://www.w3.org/2000/svg" id="Layer_1" data-name="Layer 1" viewBox="0 0 100 100" width="49.28" height="49.28"><circle cx="50" cy="50" r="50" fill="#F7B801"/></svg></g><g transform="translate(49.28,&#10;                                295.68) rotate(0, 24.64, 24.64)"><svg xmlns="http://www.w3.org/2000/svg" id="Layer_1" data-name="Layer 1" viewBox="0 0 100 100" width="49.28" height="49.28"><path d="M50,100h0A50,50,0,0,1,0,50V0H100V50A50,50,0,0,1,50,100Z" fill="#7678ED"/></svg></g><g transform="translate(0.00,&#10;                                344.96) rotate(0, 24.64, 24.64)"><svg xmlns="http://www.w3.org/2000/svg" id="Layer_1" data-name="Layer 1" viewBox="0 0 100 100" width="49.28" height="49.28"><path d="M100,100A50,50,0,0,0,0,100Z" fill="#F18701"/></svg></g><g transform="translate(49.28,&#10;                                344.96) rotate(0, 24.64, 24.64)"><svg xmlns="http://www.w3.org/2000/svg" id="Layer_1" data-name="Layer 1" viewBox="0 0 100 100" width="49.28" height="49.28"><path d="M50,100a50,50,0,1,1,50-50v50Z" fill="#3D348B"/></svg></g><g transform="translate(98.56,&#10;                                295.68) rotate(0, 24.64, 24.64)"><svg xmlns="http://www.w3.org/2000/svg" id="Layer_1" data-name="Layer 1" viewBox="0 0 100 100" width="49.28" height="49.28"><circle cx="50" cy="50" r="50" fill="#F7B801"/></svg></g><g transform="translate(147.84,&#10;                                295.68) rotate(0, 24.64, 24.64)"><svg xmlns="http://www.w3.org/2000/svg" id="Layer_1" data-name="Layer 1" viewBox="0 0 100 100" width="49.28" height="49.28"><path d="M50,100h0A50,50,0,0,1,0,50V0H100V50A50,50,0,0,1,50,100Z" fill="#7678ED"/></svg></g><g transform="translate(98.56,&#10;                                344.96) rotate(0, 24.64, 24.64)"><svg xmlns="http://www.w3.org/2000/svg" id="Layer_1" data-name="Layer 1" viewBox="0 0 100 100" width="49.28" height="49.28"><path d="M100,100A50,50,0,0,0,0,100Z" fill="#F18701"/></svg></g><g transform="translate(147.84,&#10;                                344.96) rotate(0, 24.64, 24.64)"><svg xmlns="http://www.w3.org/2000/svg" id="Layer_1" data-name="Layer 1" viewBox="0 0 100 100" width="49.28" height="49.28"><path d="M50,100a50,50,0,1,1,50-50v50Z" fill="#3D348B"/></svg></g><g transform="translate(197.12,&#10;                                295.68) rotate(0, 24.64, 24.64)"><svg xmlns="http://www.w3.org/2000/svg" id="Layer_1" data-name="Layer 1" viewBox="0 0 100 100" width="49.28" height="49.28"><circle cx="50" cy="50" r="50" fill="#F7B801"/></svg></g><g transform="translate(246.40,&#10;                                295.68) rotate(0, 24.64, 24.64)"><svg xmlns="http://www.w3.org/2000/svg" id="Layer_1" data-name="Layer 1" viewBox="0 0 100 100" width="49.28" height="49.28"><path d="M50,100h0A50,50,0,0,1,0,50V0H100V50A50,50,0,0,1,50,100Z" fill="#7678ED"/></svg></g><g transform="translate(197.12,&#10;                                344.96) rotate(0, 24.64, 24.64)"><svg xmlns="http://www.w3.org/2000/svg" id="Layer_1" data-name="Layer 1" viewBox="0 0 100 100" width="49.28" height="49.28"><path d="M100,100A50,50,0,0,0,0,100Z" fill="#F18701"/></svg></g><g transform="translate(246.40,&#10;                                344.96) rotate(0, 24.64, 24.64)"><svg xmlns="http://www.w3.org/2000/svg" id="Layer_1" data-name="Layer 1" viewBox="0 0 100 100" width="49.28" height="49.28"><path d="M50,100a50,50,0,1,1,50-50v50Z" fill="#3D348B"/></svg></g><g transform="translate(295.68,&#10;                                295.68) rotate(0, 24.64, 24.64)"><svg xmlns="http://www.w3.org/2000/svg" id="Layer_1" data-name="Layer 1" viewBox="0 0 100 100" width="49.28" height="49.28"><circle cx="50" cy="50" r="50" fill="#F7B801"/></svg></g><g transform="translate(344.96,&#10;                                295.68) rotate(0, 24.64, 24.64)"><svg xmlns="http://www.w3.org/2000/svg" id="Layer_1" data-name="Layer 1" viewBox="0 0 100 100" width="49.28" height="49.28"><path d="M50,100h0A50,50,0,0,1,0,50V0H100V50A50,50,0,0,1,50,100Z" fill="#7678ED"/></svg></g><g transform="translate(295.68,&#10;                                344.96) rotate(0, 24.64, 24.64)"><svg xmlns="http://www.w3.org/2000/svg" id="Layer_1" data-name="Layer 1" viewBox="0 0 100 100" width="49.28" height="49.28"><path d="M100,100A50,50,0,0,0,0,100Z" fill="#F18701"/></svg></g><g transform="translate(344.96,&#10;                                344.96) rotate(0, 24.64, 24.64)"><svg xmlns="http://www.w3.org/2000/svg" id="Layer_1" data-name="Layer 1" viewBox="0 0 100 100" width="49.28" height="49.28"><path d="M50,100a50,50,0,1,1,50-50v50Z" fill="#3D348B"/></svg></g><g transform="translate(394.24,&#10;                                295.68) rotate(0, 24.64, 24.64)"><svg xmlns="http://www.w3.org/2000/svg" id="Layer_1" data-name="Layer 1" viewBox="0 0 100 100" width="49.28" height="49.28"><circle cx="50" cy="50" r="50" fill="#F7B801"/></svg></g><g transform="translate(443.52,&#10;                                295.68) rotate(0, 24.64, 24.64)"><svg xmlns="http://www.w3.org/2000/svg" id="Layer_1" data-name="Layer 1" viewBox="0 0 100 100" width="49.28" height="49.28"><path d="M50,100h0A50,50,0,0,1,0,50V0H100V50A50,50,0,0,1,50,100Z" fill="#7678ED"/></svg></g><g transform="translate(394.24,&#10;                                344.96) rotate(0, 24.64, 24.64)"><svg xmlns="http://www.w3.org/2000/svg" id="Layer_1" data-name="Layer 1" viewBox="0 0 100 100" width="49.28" height="49.28"><path d="M100,100A50,50,0,0,0,0,100Z" fill="#F18701"/></svg></g><g transform="translate(443.52,&#10;                                344.96) rotate(0, 24.64, 24.64)"><svg xmlns="http://www.w3.org/2000/svg" id="Layer_1" data-name="Layer 1" viewBox="0 0 100 100" width="49.28" height="49.28"><path d="M50,100a50,50,0,1,1,50-50v50Z" fill="#3D348B"/></svg></g></g><g><g transform="translate(0.00,&#10;                                394.24) rotate(0, 24.64, 24.64)"><svg xmlns="http://www.w3.org/2000/svg" id="Layer_1" data-name="Layer 1" viewBox="0 0 100 100" width="49.28" height="49.28"><circle cx="50" cy="50" r="50" fill="#F7B801"/></svg></g><g transform="translate(49.28,&#10;                                394.24) rotate(0, 24.64, 24.64)"><svg xmlns="http://www.w3.org/2000/svg" id="Layer_1" data-name="Layer 1" viewBox="0 0 100 100" width="49.28" height="49.28"><path d="M50,100h0A50,50,0,0,1,0,50V0H100V50A50,50,0,0,1,50,100Z" fill="#7678ED"/></svg></g><g transform="translate(0.00,&#10;                                443.52) rotate(0, 24.64, 24.64)"><svg xmlns="http://www.w3.org/2000/svg" id="Layer_1" data-name="Layer 1" viewBox="0 0 100 100" width="49.28" height="49.28"><path d="M100,100A50,50,0,0,0,0,100Z" fill="#F18701"/></svg></g><g transform="translate(49.28,&#10;                                443.52) rotate(0, 24.64, 24.64)"><svg xmlns="http://www.w3.org/2000/svg" id="Layer_1" data-name="Layer 1" viewBox="0 0 100 100" width="49.28" height="49.28"><path d="M50,100a50,50,0,1,1,50-50v50Z" fill="#3D348B"/></svg></g><g transform="translate(98.56,&#10;                                394.24) rotate(0, 24.64, 24.64)"><svg xmlns="http://www.w3.org/2000/svg" id="Layer_1" data-name="Layer 1" viewBox="0 0 100 100" width="49.28" height="49.28"><circle cx="50" cy="50" r="50" fill="#F7B801"/></svg></g><g transform="translate(147.84,&#10;                                394.24) rotate(0, 24.64, 24.64)"><svg xmlns="http://www.w3.org/2000/svg" id="Layer_1" data-name="Layer 1" viewBox="0 0 100 100" width="49.28" height="49.28"><path d="M50,100h0A50,50,0,0,1,0,50V0H100V50A50,50,0,0,1,50,100Z" fill="#7678ED"/></svg></g><g transform="translate(98.56,&#10;                                443.52) rotate(0, 24.64, 24.64)"><svg xmlns="http://www.w3.org/2000/svg" id="Layer_1" data-name="Layer 1" viewBox="0 0 100 100" width="49.28" height="49.28"><path d="M100,100A50,50,0,0,0,0,100Z" fill="#F18701"/></svg></g><g transform="translate(147.84,&#10;                                443.52) rotate(0, 24.64, 24.64)"><svg xmlns="http://www.w3.org/2000/svg" id="Layer_1" data-name="Layer 1" viewBox="0 0 100 100" width="49.28" height="49.28"><path d="M50,100a50,50,0,1,1,50-50v50Z" fill="#3D348B"/></svg></g><g transform="translate(197.12,&#10;                                394.24) rotate(0, 24.64, 24.64)"><svg xmlns="http://www.w3.org/2000/svg" id="Layer_1" data-name="Layer 1" viewBox="0 0 100 100" width="49.28" height="49.28"><circle cx="50" cy="50" r="50" fill="#F7B801"/></svg></g><g transform="translate(246.40,&#10;                                394.24) rotate(0, 24.64, 24.64)"><svg xmlns="http://www.w3.org/2000/svg" id="Layer_1" data-name="Layer 1" viewBox="0 0 100 100" width="49.28" height="49.28"><path d="M50,100h0A50,50,0,0,1,0,50V0H100V50A50,50,0,0,1,50,100Z" fill="#7678ED"/></svg></g><g transform="translate(197.12,&#10;                                443.52) rotate(0, 24.64, 24.64)"><svg xmlns="http://www.w3.org/2000/svg" id="Layer_1" data-name="Layer 1" viewBox="0 0 100 100" width="49.28" height="49.28"><path d="M100,100A50,50,0,0,0,0,100Z" fill="#F18701"/></svg></g><g transform="translate(246.40,&#10;                                443.52) rotate(0, 24.64, 24.64)"><svg xmlns="http://www.w3.org/2000/svg" id="Layer_1" data-name="Layer 1" viewBox="0 0 100 100" width="49.28" height="49.28"><path d="M50,100a50,50,0,1,1,50-50v50Z" fill="#3D348B"/></svg></g><g transform="translate(295.68,&#10;                                394.24) rotate(0, 24.64, 24.64)"><svg xmlns="http://www.w3.org/2000/svg" id="Layer_1" data-name="Layer 1" viewBox="0 0 100 100" width="49.28" height="49.28"><circle cx="50" cy="50" r="50" fill="#F7B801"/></svg></g><g transform="translate(344.96,&#10;                                394.24) rotate(0, 24.64, 24.64)"><svg xmlns="http://www.w3.org/2000/svg" id="Layer_1" data-name="Layer 1" viewBox="0 0 100 100" width="49.28" height="49.28"><path d="M50,100h0A50,50,0,0,1,0,50V0H100V50A50,50,0,0,1,50,100Z" fill="#7678ED"/></svg></g><g transform="translate(295.68,&#10;                                443.52) rotate(0, 24.64, 24.64)"><svg xmlns="http://www.w3.org/2000/svg" id="Layer_1" data-name="Layer 1" viewBox="0 0 100 100" width="49.28" height="49.28"><path d="M100,100A50,50,0,0,0,0,100Z" fill="#F18701"/></svg></g><g transform="translate(344.96,&#10;                                443.52) rotate(0, 24.64, 24.64)"><svg xmlns="http://www.w3.org/2000/svg" id="Layer_1" data-name="Layer 1" viewBox="0 0 100 100" width="49.28" height="49.28"><path d="M50,100a50,50,0,1,1,50-50v50Z" fill="#3D348B"/></svg></g><g transform="translate(394.24,&#10;                                394.24) rotate(0, 24.64, 24.64)"><svg xmlns="http://www.w3.org/2000/svg" id="Layer_1" data-name="Layer 1" viewBox="0 0 100 100" width="49.28" height="49.28"><circle cx="50" cy="50" r="50" fill="#F7B801"/></svg></g><g transform="translate(443.52,&#10;                                394.24) rotate(0, 24.64, 24.64)"><svg xmlns="http://www.w3.org/2000/svg" id="Layer_1" data-name="Layer 1" viewBox="0 0 100 100" width="49.28" height="49.28"><path d="M50,100h0A50,50,0,0,1,0,50V0H100V50A50,50,0,0,1,50,100Z" fill="#7678ED"/></svg></g><g transform="translate(394.24,&#10;                                443.52) rotate(0, 24.64, 24.64)"><svg xmlns="http://www.w3.org/2000/svg" id="Layer_1" data-name="Layer 1" viewBox="0 0 100 100" width="49.28" height="49.28"><path d="M100,100A50,50,0,0,0,0,100Z" fill="#F18701"/></svg></g><g transform="translate(443.52,&#10;                                443.52) rotate(0, 24.64, 24.64)"><svg xmlns="http://www.w3.org/2000/svg" id="Layer_1" data-name="Layer 1" viewBox="0 0 100 100" width="49.28" height="49.28"><path d="M50,100a50,50,0,1,1,50-50v50Z" fill="#3D348B"/></svg></g></g></svg>